# xmcd
#
# Track frame offsets: 
#        150
#        26818
#        52742
#        73697
#        106703
#        124139
#        148152
#        167704
#        193222
#        215650
#
# Disc length: 3168 seconds
#
# Revision: 0
# Processed by: cddbd v1.5.2PL0 Copyright (c) Steve Scherf et al.
# Submitted via: ExactAudioCopy v1.0b1
#
DISCID=950c5e0a
DTITLE=BlueTouch - Old, New, Borrowed And Blue
DYEAR=2014
DGENRE=Blues
TTITLE0=St Louis Blues
TTITLE1=Trouble
TTITLE2=Black As Night
TTITLE3=Reconsider Baby
TTITLE4=Drifting
TTITLE5=The Tallyman
TTITLE6=Save Me From Myself
TTITLE7=I Can't Quit You Baby
TTITLE8=Black Sheep
TTITLE9=Baby Please Don't Go
EXTD=
EXTT0=
EXTT1=
EXTT2=
EXTT3=
EXTT4=
EXTT5=
EXTT6=
EXTT7=
EXTT8=
EXTT9=
PLAYORDER=
